<svg width="79" height="11" viewBox="0 0 79 11" fill="none" xmlns="http://www.w3.org/2000/svg">
<path d="M4.382 10.168C3.60733 10.168 2.856 10.0653 2.128 9.86C1.40933 9.64533 0.830667 9.37 0.392 9.034L1.162 7.326C1.582 7.634 2.08133 7.88133 2.66 8.068C3.23867 8.25467 3.81733 8.348 4.396 8.348C5.04 8.348 5.516 8.25467 5.824 8.068C6.132 7.872 6.286 7.61533 6.286 7.298C6.286 7.06467 6.19267 6.87333 6.006 6.724C5.82867 6.56533 5.59533 6.43933 5.306 6.346C5.026 6.25267 4.64333 6.15 4.158 6.038C3.41133 5.86067 2.8 5.68333 2.324 5.506C1.848 5.32867 1.43733 5.044 1.092 4.652C0.756 4.26 0.588 3.73733 0.588 3.084C0.588 2.51467 0.742 2.00133 1.05 1.544C1.358 1.07733 1.82 0.708666 2.436 0.438C3.06133 0.167333 3.822 0.0319998 4.718 0.0319998C5.34333 0.0319998 5.95467 0.106666 6.552 0.255999C7.14933 0.405333 7.672 0.62 8.12 0.899999L7.42 2.622C6.51467 2.10867 5.60933 1.852 4.704 1.852C4.06933 1.852 3.598 1.95467 3.29 2.16C2.99133 2.36533 2.842 2.636 2.842 2.972C2.842 3.308 3.01467 3.56 3.36 3.728C3.71467 3.88667 4.25133 4.04533 4.97 4.204C5.71667 4.38133 6.328 4.55867 6.804 4.736C7.28 4.91333 7.686 5.19333 8.022 5.576C8.36733 5.95867 8.54 6.47667 8.54 7.13C8.54 7.69 8.38133 8.20333 8.064 8.67C7.756 9.12733 7.28933 9.49133 6.664 9.762C6.03867 10.0327 5.278 10.168 4.382 10.168ZM18.6777 8.18V10H11.0897V0.199999H18.4957V2.02H13.3437V4.148H17.8937V5.912H13.3437V8.18H18.6777ZM27.7263 10L25.8363 7.27H25.7243H23.7503V10H21.4823V0.199999H25.7243C26.5923 0.199999 27.3436 0.344666 27.9783 0.634C28.6223 0.923333 29.117 1.334 29.4623 1.866C29.8076 2.398 29.9803 3.028 29.9803 3.756C29.9803 4.484 29.803 5.114 29.4483 5.646C29.103 6.16867 28.6083 6.57 27.9643 6.85L30.1623 10H27.7263ZM27.6843 3.756C27.6843 3.20533 27.507 2.78533 27.1523 2.496C26.7976 2.19733 26.2796 2.048 25.5983 2.048H23.7503V5.464H25.5983C26.2796 5.464 26.7976 5.31467 27.1523 5.016C27.507 4.71733 27.6843 4.29733 27.6843 3.756ZM42.1992 0.199999L37.9572 10H35.7172L31.4892 0.199999H33.9392L36.9212 7.2L39.9452 0.199999H42.1992ZM44.0175 0.199999H46.2855V10H44.0175V0.199999ZM54.3012 10.168C53.3026 10.168 52.3972 9.95333 51.5852 9.524C50.7826 9.08533 50.1479 8.48333 49.6812 7.718C49.2239 6.94333 48.9952 6.07067 48.9952 5.1C48.9952 4.12933 49.2239 3.26133 49.6812 2.496C50.1479 1.72133 50.7826 1.11933 51.5852 0.69C52.3972 0.251333 53.3072 0.0319998 54.3152 0.0319998C55.1646 0.0319998 55.9299 0.181333 56.6112 0.48C57.3019 0.778667 57.8806 1.208 58.3472 1.768L56.8912 3.112C56.2286 2.34667 55.4072 1.964 54.4272 1.964C53.8206 1.964 53.2792 2.09933 52.8032 2.37C52.3272 2.63133 51.9539 3 51.6832 3.476C51.4219 3.952 51.2912 4.49333 51.2912 5.1C51.2912 5.70667 51.4219 6.248 51.6832 6.724C51.9539 7.2 52.3272 7.57333 52.8032 7.844C53.2792 8.10533 53.8206 8.236 54.4272 8.236C55.4072 8.236 56.2286 7.84867 56.8912 7.074L58.3472 8.418C57.8806 8.98733 57.3019 9.42133 56.6112 9.72C55.9206 10.0187 55.1506 10.168 54.3012 10.168ZM68.4668 8.18V10H60.8788V0.199999H68.2848V2.02H63.1328V4.148H67.6828V5.912H63.1328V8.18H68.4668ZM74.4914 10.168C73.7167 10.168 72.9654 10.0653 72.2374 9.86C71.5187 9.64533 70.94 9.37 70.5014 9.034L71.2714 7.326C71.6914 7.634 72.1907 7.88133 72.7694 8.068C73.348 8.25467 73.9267 8.348 74.5054 8.348C75.1494 8.348 75.6254 8.25467 75.9334 8.068C76.2414 7.872 76.3954 7.61533 76.3954 7.298C76.3954 7.06467 76.302 6.87333 76.1154 6.724C75.938 6.56533 75.7047 6.43933 75.4154 6.346C75.1354 6.25267 74.7527 6.15 74.2674 6.038C73.5207 5.86067 72.9094 5.68333 72.4334 5.506C71.9574 5.32867 71.5467 5.044 71.2014 4.652C70.8654 4.26 70.6974 3.73733 70.6974 3.084C70.6974 2.51467 70.8514 2.00133 71.1594 1.544C71.4674 1.07733 71.9294 0.708666 72.5454 0.438C73.1707 0.167333 73.9314 0.0319998 74.8274 0.0319998C75.4527 0.0319998 76.064 0.106666 76.6614 0.255999C77.2587 0.405333 77.7814 0.62 78.2294 0.899999L77.5294 2.622C76.624 2.10867 75.7187 1.852 74.8134 1.852C74.1787 1.852 73.7074 1.95467 73.3994 2.16C73.1007 2.36533 72.9514 2.636 72.9514 2.972C72.9514 3.308 73.124 3.56 73.4694 3.728C73.824 3.88667 74.3607 4.04533 75.0794 4.204C75.826 4.38133 76.4374 4.55867 76.9134 4.736C77.3894 4.91333 77.7954 5.19333 78.1314 5.576C78.4767 5.95867 78.6494 6.47667 78.6494 7.13C78.6494 7.69 78.4907 8.20333 78.1734 8.67C77.8654 9.12733 77.3987 9.49133 76.7734 9.762C76.148 10.0327 75.3874 10.168 74.4914 10.168Z" fill="#F0145A"/>
</svg>
